# xmcd
#
# Track frame offsets: 
#        150
#        26818
#        51287
#        78957
#        101729
#        143281
#        161758
#        182474
#        197557
#
# Disc length: 2948 seconds
#
# Revision: 0
# Processed by: cddbd v1.5.1PL0 Copyright (c) Steve Scherf et al.
# Submitted via: ExactAudioCopy v0.95a5
#
DISCID=6c0b8209
DTITLE=Eric Clapton - Live In Copenhagen (170404) [CD1)
DYEAR=2004
DGENRE=Blues
TTITLE0=Let It Rain
TTITLE1=Hoochie Coochie Man
TTITLE2=Walk Out In The Rain
TTITLE3=Bell Bottom Blues
TTITLE4=I Shot The Sheriff
TTITLE5=Milkcows Calf Blues
TTITLE6=When You Got A Friend
TTITLE7=They're Red Hot
TTITLE8=Kind Hearted Woman Blues
EXTD=
EXTT0=
EXTT1=
EXTT2=
EXTT3=
EXTT4=
EXTT5=
EXTT6=
EXTT7=
EXTT8=
PLAYORDER=
